<?xml version="1.0" encoding="utf-8" standalone="yes"?> <svg width="200" height="200" viewBox="-2 -2 33 33" xmlns="http://www.w3.org/2000/svg" xmlns:xlink="http://www.w3.org/1999/xlink" shape-rendering="crispEdges" id="qr code"><rect id="qr background" fill-opacity="1" fill="rgb(67, 139, 67)" x="-2" y="-2" width="33" height="33"></rect><path fill-opacity="1" fill="rgb(255, 255, 255)" id="qr light pixels" fill-rule="evenodd" d="M 8 0 L 10 0 L 10 1 L 9 1 L 9 2 L 8 2 z M 11 0 L 13 0 L 13 1 L 14 1 L 14 2 L 15 2 L 15 3 L 14 3 L 14 4 L 13 4 L 13 3 L 12 3 L 12 2 L 11 2 L 11 3 L 12 3 L 12 5 L 10 5 L 10 3 L 9 3 L 9 2 L 10 2 L 10 1 L 11 1 z M 16 0 L 17 0 L 17 2 L 18 2 L 18 1 L 19 1 L 19 3 L 18 3 L 18 4 L 19 4 L 19 5 L 17 5 L 17 6 L 16 6 z M 20 0 L 21 0 L 21 1 L 20 1 z M 20 2 L 21 2 L 21 6 L 20 6 z M 8 3 L 9 3 L 9 5 L 10 5 L 10 7 L 11 7 L 11 8 L 12 8 L 12 9 L 11 9 L 11 10 L 10 10 L 10 9 L 9 9 L 9 6 L 8 6 z M 11 6 L 12 6 L 12 7 L 11 7 z M 13 6 L 14 6 L 14 7 L 13 7 z M 15 6 L 16 6 L 16 7 L 15 7 z M 17 6 L 18 6 L 18 7 L 17 7 z M 19 6 L 20 6 L 20 8 L 19 8 L 19 9 L 21 9 L 21 10 L 20 10 L 20 11 L 21 11 L 21 10 L 23 10 L 23 8 L 26 8 L 26 9 L 25 9 L 25 10 L 24 10 L 24 11 L 25 11 L 25 10 L 26 10 L 26 11 L 27 11 L 27 13 L 28 13 L 28 14 L 27 14 L 27 17 L 26 17 L 26 12 L 25 12 L 25 14 L 24 14 L 24 15 L 23 15 L 23 12 L 21 12 L 21 13 L 20 13 L 20 12 L 19 12 L 19 13 L 18 13 L 18 11 L 19 11 L 19 10 L 18 10 L 18 11 L 17 11 L 17 9 L 18 9 L 18 7 L 19 7 z M 12 7 L 13 7 L 13 8 L 12 8 z M 14 7 L 15 7 L 15 8 L 17 8 L 17 9 L 16 9 L 16 11 L 17 11 L 17 13 L 16 13 L 16 14 L 19 14 L 19 13 L 20 13 L 20 14 L 22 14 L 22 15 L 21 15 L 21 16 L 20 16 L 20 15 L 16 15 L 16 16 L 15 16 L 15 15 L 14 15 L 14 14 L 13 14 L 13 16 L 12 16 L 12 15 L 10 15 L 10 14 L 12 14 L 12 12 L 13 12 L 13 13 L 14 13 L 14 12 L 15 12 L 15 10 L 14 10 L 14 11 L 13 11 L 13 9 L 14 9 z M 3 8 L 4 8 L 4 9 L 3 9 z M 27 8 L 29 8 L 29 9 L 28 9 L 28 10 L 26 10 L 26 9 L 27 9 z M 0 9 L 1 9 L 1 10 L 0 10 z M 6 9 L 9 9 L 9 10 L 10 10 L 10 11 L 9 11 L 9 12 L 8 12 L 8 11 L 7 11 L 7 10 L 6 10 z M 2 10 L 3 10 L 3 11 L 2 11 z M 3 11 L 4 11 L 4 12 L 3 12 z M 6 11 L 7 11 L 7 12 L 6 12 z M 11 11 L 12 11 L 12 12 L 11 12 z M 28 11 L 29 11 L 29 12 L 28 12 z M 4 12 L 6 12 L 6 13 L 7 13 L 7 14 L 4 14 z M 7 12 L 8 12 L 8 13 L 7 13 z M 9 12 L 10 12 L 10 13 L 9 13 z M 0 13 L 2 13 L 2 14 L 3 14 L 3 15 L 2 15 L 2 16 L 1 16 L 1 15 L 0 15 z M 8 13 L 9 13 L 9 15 L 7 15 L 7 14 L 8 14 z M 3 15 L 5 15 L 5 16 L 3 16 z M 6 15 L 7 15 L 7 16 L 6 16 z M 9 15 L 10 15 L 10 16 L 9 16 z M 28 15 L 29 15 L 29 16 L 28 16 z M 0 16 L 1 16 L 1 17 L 2 17 L 2 16 L 3 16 L 3 18 L 2 18 L 2 19 L 1 19 L 1 18 L 0 18 z M 5 16 L 6 16 L 6 17 L 7 17 L 7 16 L 9 16 L 9 17 L 10 17 L 10 19 L 12 19 L 12 20 L 10 20 L 10 22 L 9 22 L 9 21 L 8 21 L 8 20 L 9 20 L 9 18 L 8 18 L 8 20 L 6 20 L 6 19 L 7 19 L 7 18 L 4 18 L 4 17 L 5 17 z M 11 16 L 12 16 L 12 17 L 11 17 z M 18 16 L 19 16 L 19 17 L 20 17 L 20 19 L 22 19 L 22 20 L 18 20 L 18 19 L 19 19 L 19 18 L 18 18 z M 23 16 L 25 16 L 25 18 L 23 18 z M 13 17 L 16 17 L 16 19 L 14 19 L 14 18 L 13 18 z M 27 17 L 28 17 L 28 18 L 27 18 z M 3 18 L 4 18 L 4 19 L 5 19 L 5 20 L 3 20 z M 22 18 L 23 18 L 23 19 L 22 19 z M 25 18 L 27 18 L 27 20 L 28 20 L 28 19 L 29 19 L 29 21 L 26 21 L 26 22 L 25 22 L 25 20 L 26 20 L 26 19 L 25 19 z M 0 19 L 1 19 L 1 20 L 0 20 z M 16 19 L 17 19 L 17 21 L 16 21 L 16 22 L 17 22 L 17 23 L 16 23 L 16 24 L 15 24 L 15 25 L 18 25 L 18 22 L 17 22 L 17 21 L 20 21 L 20 22 L 19 22 L 19 23 L 20 23 L 20 25 L 23 25 L 23 27 L 26 27 L 26 26 L 28 26 L 28 27 L 27 27 L 27 29 L 24 29 L 24 28 L 21 28 L 21 27 L 22 27 L 22 26 L 20 26 L 20 27 L 19 27 L 19 26 L 18 26 L 18 27 L 16 27 L 16 28 L 15 28 L 15 26 L 14 26 L 14 25 L 13 25 L 13 24 L 12 24 L 12 23 L 11 23 L 11 24 L 12 24 L 12 25 L 11 25 L 11 27 L 12 27 L 12 28 L 11 28 L 11 29 L 9 29 L 9 28 L 10 28 L 10 26 L 8 26 L 8 25 L 10 25 L 10 24 L 9 24 L 9 23 L 10 23 L 10 22 L 12 22 L 12 20 L 14 20 L 14 21 L 15 21 L 15 20 L 16 20 zM 13 22 L 14 22 L 14 23 L 13 23 z M 23 19 L 25 19 L 25 20 L 23 20 z M 1 20 L 3 20 L 3 21 L 1 21 z M 5 20 L 6 20 L 6 21 L 5 21 z M 26 22 L 27 22 L 27 23 L 29 23 L 29 25 L 26 25 L 26 26 L 25 26 L 25 24 L 26 24 z M 13 26 L 14 26 L 14 27 L 13 27 z M 28 27 L 29 27 L 29 28 L 28 28 z M 12 28 L 14 28 L 14 29 L 12 29 z M 18 28 L 19 28 L 19 29 L 18 29 z"></path><path id="qr squares" d="M-1,-1h9h0v0v9v0h0h-9h0v0v-9v0h0zM0,0h7h0v0v7v0h0h-7h0v0v-7v0h0zM1,1h5h0v0v5v0h0h-5h0v0v-5v0h0zM2,2h3h0v0v3v0h0h-3h0v0v-3v0h0z M21,-1h9h0v0v9v0h0h-9h0v0v-9v0h0zM22,0h7h0v0v7v0h0h-7h0v0v-7v0h0zM23,1h5h0v0v5v0h0h-5h0v0v-5v0h0zM24,2h3h0v0v3v0h0h-3h0v0v-3v0h0z M-1,21h9h0v0v9v0h0h-9h0v0v-9v0h0zM0,22h7h0v0v7v0h0h-7h0v0v-7v0h0zM1,23h5h0v0v5v0h0h-5h0v0v-5v0h0zM2,24h3h0v0v3v0h0h-3h0v0v-3v0h0zM21,21h3h0v0v3v0h0h-3h0v0v-3v0h0zM22,22h1h0v0v1v0h0h-1h0v0v-1v0h0z" fill-rule="evenodd" fill-opacity="1" fill="rgb(255, 255, 255)"></path></svg>