<?xml version="1.0" encoding="utf-8" standalone="yes"?> <svg width="200" height="200" viewBox="-2 -2 33 33" xmlns="http://www.w3.org/2000/svg" xmlns:xlink="http://www.w3.org/1999/xlink" shape-rendering="geometricPrecision" id="qr code"><rect id="qr background" fill-opacity="1" fill="rgb(67, 139, 67)" x="-2" y="-2" width="33" height="33" ry="2.25"></rect><path fill-opacity="1" fill="rgb(255, 255, 255)" id="qr pixels" d="M8.5,0.04999999999999999h0a0.45,0.45 0 0 1 0.45,0.45v0a0.45,0.45 0 0 1 -0.45,0.45h0a0.45,0.45 0 0 1 -0.45,-0.45v0a0.45,0.45 0 0 1 0.45,-0.45zM9.5,0.04999999999999999h0a0.45,0.45 0 0 1 0.45,0.45v0a0.45,0.45 0 0 1 -0.45,0.45h0a0.45,0.45 0 0 1 -0.45,-0.45v0a0.45,0.45 0 0 1 0.45,-0.45zM11.5,0.04999999999999999h0a0.45,0.45 0 0 1 0.45,0.45v0a0.45,0.45 0 0 1 -0.45,0.45h0a0.45,0.45 0 0 1 -0.45,-0.45v0a0.45,0.45 0 0 1 0.45,-0.45zM12.5,0.04999999999999999h0a0.45,0.45 0 0 1 0.45,0.45v0a0.45,0.45 0 0 1 -0.45,0.45h0a0.45,0.45 0 0 1 -0.45,-0.45v0a0.45,0.45 0 0 1 0.45,-0.45zM16.5,0.04999999999999999h0a0.45,0.45 0 0 1 0.45,0.45v0a0.45,0.45 0 0 1 -0.45,0.45h0a0.45,0.45 0 0 1 -0.45,-0.45v0a0.45,0.45 0 0 1 0.45,-0.45zM20.5,0.04999999999999999h0a0.45,0.45 0 0 1 0.45,0.45v0a0.45,0.45 0 0 1 -0.45,0.45h0a0.45,0.45 0 0 1 -0.45,-0.45v0a0.45,0.45 0 0 1 0.45,-0.45zM8.5,1.05h0a0.45,0.45 0 0 1 0.45,0.45v0a0.45,0.45 0 0 1 -0.45,0.45h0a0.45,0.45 0 0 1 -0.45,-0.45v0a0.45,0.45 0 0 1 0.45,-0.45zM10.5,1.05h0a0.45,0.45 0 0 1 0.45,0.45v0a0.45,0.45 0 0 1 -0.45,0.45h0a0.45,0.45 0 0 1 -0.45,-0.45v0a0.45,0.45 0 0 1 0.45,-0.45zM11.5,1.05h0a0.45,0.45 0 0 1 0.45,0.45v0a0.45,0.45 0 0 1 -0.45,0.45h0a0.45,0.45 0 0 1 -0.45,-0.45v0a0.45,0.45 0 0 1 0.45,-0.45zM12.5,1.05h0a0.45,0.45 0 0 1 0.45,0.45v0a0.45,0.45 0 0 1 -0.45,0.45h0a0.45,0.45 0 0 1 -0.45,-0.45v0a0.45,0.45 0 0 1 0.45,-0.45zM13.5,1.05h0a0.45,0.45 0 0 1 0.45,0.45v0a0.45,0.45 0 0 1 -0.45,0.45h0a0.45,0.45 0 0 1 -0.45,-0.45v0a0.45,0.45 0 0 1 0.45,-0.45zM16.5,1.05h0a0.45,0.45 0 0 1 0.45,0.45v0a0.45,0.45 0 0 1 -0.45,0.45h0a0.45,0.45 0 0 1 -0.45,-0.45v0a0.45,0.45 0 0 1 0.45,-0.45zM18.5,1.05h0a0.45,0.45 0 0 1 0.45,0.45v0a0.45,0.45 0 0 1 -0.45,0.45h0a0.45,0.45 0 0 1 -0.45,-0.45v0a0.45,0.45 0 0 1 0.45,-0.45zM9.5,2.05h0a0.45,0.45 0 0 1 0.45,0.45v0a0.45,0.45 0 0 1 -0.45,0.45h0a0.45,0.45 0 0 1 -0.45,-0.45v0a0.45,0.45 0 0 1 0.45,-0.45zM10.5,2.05h0a0.45,0.45 0 0 1 0.45,0.45v0a0.45,0.45 0 0 1 -0.45,0.45h0a0.45,0.45 0 0 1 -0.45,-0.45v0a0.45,0.45 0 0 1 0.45,-0.45zM12.5,2.05h0a0.45,0.45 0 0 1 0.45,0.45v0a0.45,0.45 0 0 1 -0.45,0.45h0a0.45,0.45 0 0 1 -0.45,-0.45v0a0.45,0.45 0 0 1 0.45,-0.45zM13.5,2.05h0a0.45,0.45 0 0 1 0.45,0.45v0a0.45,0.45 0 0 1 -0.45,0.45h0a0.45,0.45 0 0 1 -0.45,-0.45v0a0.45,0.45 0 0 1 0.45,-0.45zM14.5,2.05h0a0.45,0.45 0 0 1 0.45,0.45v0a0.45,0.45 0 0 1 -0.45,0.45h0a0.45,0.45 0 0 1 -0.45,-0.45v0a0.45,0.45 0 0 1 0.45,-0.45zM16.5,2.05h0a0.45,0.45 0 0 1 0.45,0.45v0a0.45,0.45 0 0 1 -0.45,0.45h0a0.45,0.45 0 0 1 -0.45,-0.45v0a0.45,0.45 0 0 1 0.45,-0.45zM17.5,2.05h0a0.45,0.45 0 0 1 0.45,0.45v0a0.45,0.45 0 0 1 -0.45,0.45h0a0.45,0.45 0 0 1 -0.45,-0.45v0a0.45,0.45 0 0 1 0.45,-0.45zM18.5,2.05h0a0.45,0.45 0 0 1 0.45,0.45v0a0.45,0.45 0 0 1 -0.45,0.45h0a0.45,0.45 0 0 1 -0.45,-0.45v0a0.45,0.45 0 0 1 0.45,-0.45zM20.5,2.05h0a0.45,0.45 0 0 1 0.45,0.45v0a0.45,0.45 0 0 1 -0.45,0.45h0a0.45,0.45 0 0 1 -0.45,-0.45v0a0.45,0.45 0 0 1 0.45,-0.45zM8.5,3.05h0a0.45,0.45 0 0 1 0.45,0.45v0a0.45,0.45 0 0 1 -0.45,0.45h0a0.45,0.45 0 0 1 -0.45,-0.45v0a0.45,0.45 0 0 1 0.45,-0.45zM10.5,3.05h0a0.45,0.45 0 0 1 0.45,0.45v0a0.45,0.45 0 0 1 -0.45,0.45h0a0.45,0.45 0 0 1 -0.45,-0.45v0a0.45,0.45 0 0 1 0.45,-0.45zM11.5,3.05h0a0.45,0.45 0 0 1 0.45,0.45v0a0.45,0.45 0 0 1 -0.45,0.45h0a0.45,0.45 0 0 1 -0.45,-0.45v0a0.45,0.45 0 0 1 0.45,-0.45zM13.5,3.05h0a0.45,0.45 0 0 1 0.45,0.45v0a0.45,0.45 0 0 1 -0.45,0.45h0a0.45,0.45 0 0 1 -0.45,-0.45v0a0.45,0.45 0 0 1 0.45,-0.45zM16.5,3.05h0a0.45,0.45 0 0 1 0.45,0.45v0a0.45,0.45 0 0 1 -0.45,0.45h0a0.45,0.45 0 0 1 -0.45,-0.45v0a0.45,0.45 0 0 1 0.45,-0.45zM17.5,3.05h0a0.45,0.45 0 0 1 0.45,0.45v0a0.45,0.45 0 0 1 -0.45,0.45h0a0.45,0.45 0 0 1 -0.45,-0.45v0a0.45,0.45 0 0 1 0.45,-0.45zM20.5,3.05h0a0.45,0.45 0 0 1 0.45,0.45v0a0.45,0.45 0 0 1 -0.45,0.45h0a0.45,0.45 0 0 1 -0.45,-0.45v0a0.45,0.45 0 0 1 0.45,-0.45zM8.5,4.05h0a0.45,0.45 0 0 1 0.45,0.45v0a0.45,0.45 0 0 1 -0.45,0.45h0a0.45,0.45 0 0 1 -0.45,-0.45v0a0.45,0.45 0 0 1 0.45,-0.45zM10.5,4.05h0a0.45,0.45 0 0 1 0.45,0.45v0a0.45,0.45 0 0 1 -0.45,0.45h0a0.45,0.45 0 0 1 -0.45,-0.45v0a0.45,0.45 0 0 1 0.45,-0.45zM11.5,4.05h0a0.45,0.45 0 0 1 0.45,0.45v0a0.45,0.45 0 0 1 -0.45,0.45h0a0.45,0.45 0 0 1 -0.45,-0.45v0a0.45,0.45 0 0 1 0.45,-0.45zM16.5,4.05h0a0.45,0.45 0 0 1 0.45,0.45v0a0.45,0.45 0 0 1 -0.45,0.45h0a0.45,0.45 0 0 1 -0.45,-0.45v0a0.45,0.45 0 0 1 0.45,-0.45zM17.5,4.05h0a0.45,0.45 0 0 1 0.45,0.45v0a0.45,0.45 0 0 1 -0.45,0.45h0a0.45,0.45 0 0 1 -0.45,-0.45v0a0.45,0.45 0 0 1 0.45,-0.45zM18.5,4.05h0a0.45,0.45 0 0 1 0.45,0.45v0a0.45,0.45 0 0 1 -0.45,0.45h0a0.45,0.45 0 0 1 -0.45,-0.45v0a0.45,0.45 0 0 1 0.45,-0.45zM20.5,4.05h0a0.45,0.45 0 0 1 0.45,0.45v0a0.45,0.45 0 0 1 -0.45,0.45h0a0.45,0.45 0 0 1 -0.45,-0.45v0a0.45,0.45 0 0 1 0.45,-0.45zM8.5,5.05h0a0.45,0.45 0 0 1 0.45,0.45v0a0.45,0.45 0 0 1 -0.45,0.45h0a0.45,0.45 0 0 1 -0.45,-0.45v0a0.45,0.45 0 0 1 0.45,-0.45zM9.5,5.05h0a0.45,0.45 0 0 1 0.45,0.45v0a0.45,0.45 0 0 1 -0.45,0.45h0a0.45,0.45 0 0 1 -0.45,-0.45v0a0.45,0.45 0 0 1 0.45,-0.45zM16.5,5.05h0a0.45,0.45 0 0 1 0.45,0.45v0a0.45,0.45 0 0 1 -0.45,0.45h0a0.45,0.45 0 0 1 -0.45,-0.45v0a0.45,0.45 0 0 1 0.45,-0.45zM20.5,5.05h0a0.45,0.45 0 0 1 0.45,0.45v0a0.45,0.45 0 0 1 -0.45,0.45h0a0.45,0.45 0 0 1 -0.45,-0.45v0a0.45,0.45 0 0 1 0.45,-0.45zM9.5,6.05h0a0.45,0.45 0 0 1 0.45,0.45v0a0.45,0.45 0 0 1 -0.45,0.45h0a0.45,0.45 0 0 1 -0.45,-0.45v0a0.45,0.45 0 0 1 0.45,-0.45zM11.5,6.05h0a0.45,0.45 0 0 1 0.45,0.45v0a0.45,0.45 0 0 1 -0.45,0.45h0a0.45,0.45 0 0 1 -0.45,-0.45v0a0.45,0.45 0 0 1 0.45,-0.45zM13.5,6.05h0a0.45,0.45 0 0 1 0.45,0.45v0a0.45,0.45 0 0 1 -0.45,0.45h0a0.45,0.45 0 0 1 -0.45,-0.45v0a0.45,0.45 0 0 1 0.45,-0.45zM15.5,6.05h0a0.45,0.45 0 0 1 0.45,0.45v0a0.45,0.45 0 0 1 -0.45,0.45h0a0.45,0.45 0 0 1 -0.45,-0.45v0a0.45,0.45 0 0 1 0.45,-0.45zM17.5,6.05h0a0.45,0.45 0 0 1 0.45,0.45v0a0.45,0.45 0 0 1 -0.45,0.45h0a0.45,0.45 0 0 1 -0.45,-0.45v0a0.45,0.45 0 0 1 0.45,-0.45zM19.5,6.05h0a0.45,0.45 0 0 1 0.45,0.45v0a0.45,0.45 0 0 1 -0.45,0.45h0a0.45,0.45 0 0 1 -0.45,-0.45v0a0.45,0.45 0 0 1 0.45,-0.45zM9.5,7.05h0a0.45,0.45 0 0 1 0.45,0.45v0a0.45,0.45 0 0 1 -0.45,0.45h0a0.45,0.45 0 0 1 -0.45,-0.45v0a0.45,0.45 0 0 1 0.45,-0.45zM10.5,7.05h0a0.45,0.45 0 0 1 0.45,0.45v0a0.45,0.45 0 0 1 -0.45,0.45h0a0.45,0.45 0 0 1 -0.45,-0.45v0a0.45,0.45 0 0 1 0.45,-0.45zM12.5,7.05h0a0.45,0.45 0 0 1 0.45,0.45v0a0.45,0.45 0 0 1 -0.45,0.45h0a0.45,0.45 0 0 1 -0.45,-0.45v0a0.45,0.45 0 0 1 0.45,-0.45zM14.5,7.05h0a0.45,0.45 0 0 1 0.45,0.45v0a0.45,0.45 0 0 1 -0.45,0.45h0a0.45,0.45 0 0 1 -0.45,-0.45v0a0.45,0.45 0 0 1 0.45,-0.45zM18.5,7.05h0a0.45,0.45 0 0 1 0.45,0.45v0a0.45,0.45 0 0 1 -0.45,0.45h0a0.45,0.45 0 0 1 -0.45,-0.45v0a0.45,0.45 0 0 1 0.45,-0.45zM19.5,7.05h0a0.45,0.45 0 0 1 0.45,0.45v0a0.45,0.45 0 0 1 -0.45,0.45h0a0.45,0.45 0 0 1 -0.45,-0.45v0a0.45,0.45 0 0 1 0.45,-0.45zM3.5,8.05h0a0.45,0.45 0 0 1 0.45,0.45v0a0.45,0.45 0 0 1 -0.45,0.45h0a0.45,0.45 0 0 1 -0.45,-0.45v0a0.45,0.45 0 0 1 0.45,-0.45zM9.5,8.05h0a0.45,0.45 0 0 1 0.45,0.45v0a0.45,0.45 0 0 1 -0.45,0.45h0a0.45,0.45 0 0 1 -0.45,-0.45v0a0.45,0.45 0 0 1 0.45,-0.45zM10.5,8.05h0a0.45,0.45 0 0 1 0.45,0.45v0a0.45,0.45 0 0 1 -0.45,0.45h0a0.45,0.45 0 0 1 -0.45,-0.45v0a0.45,0.45 0 0 1 0.45,-0.45zM11.5,8.05h0a0.45,0.45 0 0 1 0.45,0.45v0a0.45,0.45 0 0 1 -0.45,0.45h0a0.45,0.45 0 0 1 -0.45,-0.45v0a0.45,0.45 0 0 1 0.45,-0.45zM14.5,8.05h0a0.45,0.45 0 0 1 0.45,0.45v0a0.45,0.45 0 0 1 -0.45,0.45h0a0.45,0.45 0 0 1 -0.45,-0.45v0a0.45,0.45 0 0 1 0.45,-0.45zM15.5,8.05h0a0.45,0.45 0 0 1 0.45,0.45v0a0.45,0.45 0 0 1 -0.45,0.45h0a0.45,0.45 0 0 1 -0.45,-0.45v0a0.45,0.45 0 0 1 0.45,-0.45zM16.5,8.05h0a0.45,0.45 0 0 1 0.45,0.45v0a0.45,0.45 0 0 1 -0.45,0.45h0a0.45,0.45 0 0 1 -0.45,-0.45v0a0.45,0.45 0 0 1 0.45,-0.45zM18.5,8.05h0a0.45,0.45 0 0 1 0.45,0.45v0a0.45,0.45 0 0 1 -0.45,0.45h0a0.45,0.45 0 0 1 -0.45,-0.45v0a0.45,0.45 0 0 1 0.45,-0.45zM23.5,8.05h0a0.45,0.45 0 0 1 0.45,0.45v0a0.45,0.45 0 0 1 -0.45,0.45h0a0.45,0.45 0 0 1 -0.45,-0.45v0a0.45,0.45 0 0 1 0.45,-0.45zM24.5,8.05h0a0.45,0.45 0 0 1 0.45,0.45v0a0.45,0.45 0 0 1 -0.45,0.45h0a0.45,0.45 0 0 1 -0.45,-0.45v0a0.45,0.45 0 0 1 0.45,-0.45zM25.5,8.05h0a0.45,0.45 0 0 1 0.45,0.45v0a0.45,0.45 0 0 1 -0.45,0.45h0a0.45,0.45 0 0 1 -0.45,-0.45v0a0.45,0.45 0 0 1 0.45,-0.45zM27.5,8.05h0a0.45,0.45 0 0 1 0.45,0.45v0a0.45,0.45 0 0 1 -0.45,0.45h0a0.45,0.45 0 0 1 -0.45,-0.45v0a0.45,0.45 0 0 1 0.45,-0.45zM28.5,8.05h0a0.45,0.45 0 0 1 0.45,0.45v0a0.45,0.45 0 0 1 -0.45,0.45h0a0.45,0.45 0 0 1 -0.45,-0.45v0a0.45,0.45 0 0 1 0.45,-0.45zM0.5,9.05h0a0.45,0.45 0 0 1 0.45,0.45v0a0.45,0.45 0 0 1 -0.45,0.45h0a0.45,0.45 0 0 1 -0.45,-0.45v0a0.45,0.45 0 0 1 0.45,-0.45zM6.5,9.05h0a0.45,0.45 0 0 1 0.45,0.45v0a0.45,0.45 0 0 1 -0.45,0.45h0a0.45,0.45 0 0 1 -0.45,-0.45v0a0.45,0.45 0 0 1 0.45,-0.45zM7.5,9.05h0a0.45,0.45 0 0 1 0.45,0.45v0a0.45,0.45 0 0 1 -0.45,0.45h0a0.45,0.45 0 0 1 -0.45,-0.45v0a0.45,0.45 0 0 1 0.45,-0.45zM8.5,9.05h0a0.45,0.45 0 0 1 0.45,0.45v0a0.45,0.45 0 0 1 -0.45,0.45h0a0.45,0.45 0 0 1 -0.45,-0.45v0a0.45,0.45 0 0 1 0.45,-0.45zM10.5,9.05h0a0.45,0.45 0 0 1 0.45,0.45v0a0.45,0.45 0 0 1 -0.45,0.45h0a0.45,0.45 0 0 1 -0.45,-0.45v0a0.45,0.45 0 0 1 0.45,-0.45zM13.5,9.05h0a0.45,0.45 0 0 1 0.45,0.45v0a0.45,0.45 0 0 1 -0.45,0.45h0a0.45,0.45 0 0 1 -0.45,-0.45v0a0.45,0.45 0 0 1 0.45,-0.45zM14.5,9.05h0a0.45,0.45 0 0 1 0.45,0.45v0a0.45,0.45 0 0 1 -0.45,0.45h0a0.45,0.45 0 0 1 -0.45,-0.45v0a0.45,0.45 0 0 1 0.45,-0.45zM15.5,9.05h0a0.45,0.45 0 0 1 0.45,0.45v0a0.45,0.45 0 0 1 -0.45,0.45h0a0.45,0.45 0 0 1 -0.45,-0.45v0a0.45,0.45 0 0 1 0.45,-0.45zM17.5,9.05h0a0.45,0.45 0 0 1 0.45,0.45v0a0.45,0.45 0 0 1 -0.45,0.45h0a0.45,0.45 0 0 1 -0.45,-0.45v0a0.45,0.45 0 0 1 0.45,-0.45zM18.5,9.05h0a0.45,0.45 0 0 1 0.45,0.45v0a0.45,0.45 0 0 1 -0.45,0.45h0a0.45,0.45 0 0 1 -0.45,-0.45v0a0.45,0.45 0 0 1 0.45,-0.45zM19.5,9.05h0a0.45,0.45 0 0 1 0.45,0.45v0a0.45,0.45 0 0 1 -0.45,0.45h0a0.45,0.45 0 0 1 -0.45,-0.45v0a0.45,0.45 0 0 1 0.45,-0.45zM20.5,9.05h0a0.45,0.45 0 0 1 0.45,0.45v0a0.45,0.45 0 0 1 -0.45,0.45h0a0.45,0.45 0 0 1 -0.45,-0.45v0a0.45,0.45 0 0 1 0.45,-0.45zM23.5,9.05h0a0.45,0.45 0 0 1 0.45,0.45v0a0.45,0.45 0 0 1 -0.45,0.45h0a0.45,0.45 0 0 1 -0.45,-0.45v0a0.45,0.45 0 0 1 0.45,-0.45zM24.5,9.05h0a0.45,0.45 0 0 1 0.45,0.45v0a0.45,0.45 0 0 1 -0.45,0.45h0a0.45,0.45 0 0 1 -0.45,-0.45v0a0.45,0.45 0 0 1 0.45,-0.45zM26.5,9.05h0a0.45,0.45 0 0 1 0.45,0.45v0a0.45,0.45 0 0 1 -0.45,0.45h0a0.45,0.45 0 0 1 -0.45,-0.45v0a0.45,0.45 0 0 1 0.45,-0.45zM27.5,9.05h0a0.45,0.45 0 0 1 0.45,0.45v0a0.45,0.45 0 0 1 -0.45,0.45h0a0.45,0.45 0 0 1 -0.45,-0.45v0a0.45,0.45 0 0 1 0.45,-0.45zM2.5,10.05h0a0.45,0.45 0 0 1 0.45,0.45v0a0.45,0.45 0 0 1 -0.45,0.45h0a0.45,0.45 0 0 1 -0.45,-0.45v0a0.45,0.45 0 0 1 0.45,-0.45zM7.5,10.05h0a0.45,0.45 0 0 1 0.45,0.45v0a0.45,0.45 0 0 1 -0.45,0.45h0a0.45,0.45 0 0 1 -0.45,-0.45v0a0.45,0.45 0 0 1 0.45,-0.45zM8.5,10.05h0a0.45,0.45 0 0 1 0.45,0.45v0a0.45,0.45 0 0 1 -0.45,0.45h0a0.45,0.45 0 0 1 -0.45,-0.45v0a0.45,0.45 0 0 1 0.45,-0.45zM9.5,10.05h0a0.45,0.45 0 0 1 0.45,0.45v0a0.45,0.45 0 0 1 -0.45,0.45h0a0.45,0.45 0 0 1 -0.45,-0.45v0a0.45,0.45 0 0 1 0.45,-0.45zM13.5,10.05h0a0.45,0.45 0 0 1 0.45,0.45v0a0.45,0.45 0 0 1 -0.45,0.45h0a0.45,0.45 0 0 1 -0.45,-0.45v0a0.45,0.45 0 0 1 0.45,-0.45zM15.5,10.05h0a0.45,0.45 0 0 1 0.45,0.45v0a0.45,0.45 0 0 1 -0.45,0.45h0a0.45,0.45 0 0 1 -0.45,-0.45v0a0.45,0.45 0 0 1 0.45,-0.45zM17.5,10.05h0a0.45,0.45 0 0 1 0.45,0.45v0a0.45,0.45 0 0 1 -0.45,0.45h0a0.45,0.45 0 0 1 -0.45,-0.45v0a0.45,0.45 0 0 1 0.45,-0.45zM19.5,10.05h0a0.45,0.45 0 0 1 0.45,0.45v0a0.45,0.45 0 0 1 -0.45,0.45h0a0.45,0.45 0 0 1 -0.45,-0.45v0a0.45,0.45 0 0 1 0.45,-0.45zM21.5,10.05h0a0.45,0.45 0 0 1 0.45,0.45v0a0.45,0.45 0 0 1 -0.45,0.45h0a0.45,0.45 0 0 1 -0.45,-0.45v0a0.45,0.45 0 0 1 0.45,-0.45zM22.5,10.05h0a0.45,0.45 0 0 1 0.45,0.45v0a0.45,0.45 0 0 1 -0.45,0.45h0a0.45,0.45 0 0 1 -0.45,-0.45v0a0.45,0.45 0 0 1 0.45,-0.45zM23.5,10.05h0a0.45,0.45 0 0 1 0.45,0.45v0a0.45,0.45 0 0 1 -0.45,0.45h0a0.45,0.45 0 0 1 -0.45,-0.45v0a0.45,0.45 0 0 1 0.45,-0.45zM25.5,10.05h0a0.45,0.45 0 0 1 0.45,0.45v0a0.45,0.45 0 0 1 -0.45,0.45h0a0.45,0.45 0 0 1 -0.45,-0.45v0a0.45,0.45 0 0 1 0.45,-0.45zM3.5,11.05h0a0.45,0.45 0 0 1 0.45,0.45v0a0.45,0.45 0 0 1 -0.45,0.45h0a0.45,0.45 0 0 1 -0.45,-0.45v0a0.45,0.45 0 0 1 0.45,-0.45zM6.5,11.05h0a0.45,0.45 0 0 1 0.45,0.45v0a0.45,0.45 0 0 1 -0.45,0.45h0a0.45,0.45 0 0 1 -0.45,-0.45v0a0.45,0.45 0 0 1 0.45,-0.45zM8.5,11.05h0a0.45,0.45 0 0 1 0.45,0.45v0a0.45,0.45 0 0 1 -0.45,0.45h0a0.45,0.45 0 0 1 -0.45,-0.45v0a0.45,0.45 0 0 1 0.45,-0.45zM11.5,11.05h0a0.45,0.45 0 0 1 0.45,0.45v0a0.45,0.45 0 0 1 -0.45,0.45h0a0.45,0.45 0 0 1 -0.45,-0.45v0a0.45,0.45 0 0 1 0.45,-0.45zM15.5,11.05h0a0.45,0.45 0 0 1 0.45,0.45v0a0.45,0.45 0 0 1 -0.45,0.45h0a0.45,0.45 0 0 1 -0.45,-0.45v0a0.45,0.45 0 0 1 0.45,-0.45zM16.5,11.05h0a0.45,0.45 0 0 1 0.45,0.45v0a0.45,0.45 0 0 1 -0.45,0.45h0a0.45,0.45 0 0 1 -0.45,-0.45v0a0.45,0.45 0 0 1 0.45,-0.45zM18.5,11.05h0a0.45,0.45 0 0 1 0.45,0.45v0a0.45,0.45 0 0 1 -0.45,0.45h0a0.45,0.45 0 0 1 -0.45,-0.45v0a0.45,0.45 0 0 1 0.45,-0.45zM19.5,11.05h0a0.45,0.45 0 0 1 0.45,0.45v0a0.45,0.45 0 0 1 -0.45,0.45h0a0.45,0.45 0 0 1 -0.45,-0.45v0a0.45,0.45 0 0 1 0.45,-0.45zM20.5,11.05h0a0.45,0.45 0 0 1 0.45,0.45v0a0.45,0.45 0 0 1 -0.45,0.45h0a0.45,0.45 0 0 1 -0.45,-0.45v0a0.45,0.45 0 0 1 0.45,-0.45zM21.5,11.05h0a0.45,0.45 0 0 1 0.45,0.45v0a0.45,0.45 0 0 1 -0.45,0.45h0a0.45,0.45 0 0 1 -0.45,-0.45v0a0.45,0.45 0 0 1 0.45,-0.45zM22.5,11.05h0a0.45,0.45 0 0 1 0.45,0.45v0a0.45,0.45 0 0 1 -0.45,0.45h0a0.45,0.45 0 0 1 -0.45,-0.45v0a0.45,0.45 0 0 1 0.45,-0.45zM23.5,11.05h0a0.45,0.45 0 0 1 0.45,0.45v0a0.45,0.45 0 0 1 -0.45,0.45h0a0.45,0.45 0 0 1 -0.45,-0.45v0a0.45,0.45 0 0 1 0.45,-0.45zM24.5,11.05h0a0.45,0.45 0 0 1 0.45,0.45v0a0.45,0.45 0 0 1 -0.45,0.45h0a0.45,0.45 0 0 1 -0.45,-0.45v0a0.45,0.45 0 0 1 0.45,-0.45zM25.5,11.05h0a0.45,0.45 0 0 1 0.45,0.45v0a0.45,0.45 0 0 1 -0.45,0.45h0a0.45,0.45 0 0 1 -0.45,-0.45v0a0.45,0.45 0 0 1 0.45,-0.45zM26.5,11.05h0a0.45,0.45 0 0 1 0.45,0.45v0a0.45,0.45 0 0 1 -0.45,0.45h0a0.45,0.45 0 0 1 -0.45,-0.45v0a0.45,0.45 0 0 1 0.45,-0.45zM28.5,11.05h0a0.45,0.45 0 0 1 0.45,0.45v0a0.45,0.45 0 0 1 -0.45,0.45h0a0.45,0.45 0 0 1 -0.45,-0.45v0a0.45,0.45 0 0 1 0.45,-0.45zM4.5,12.05h0a0.45,0.45 0 0 1 0.45,0.45v0a0.45,0.45 0 0 1 -0.45,0.45h0a0.45,0.45 0 0 1 -0.45,-0.45v0a0.45,0.45 0 0 1 0.45,-0.45zM5.5,12.05h0a0.45,0.45 0 0 1 0.45,0.45v0a0.45,0.45 0 0 1 -0.45,0.45h0a0.45,0.45 0 0 1 -0.45,-0.45v0a0.45,0.45 0 0 1 0.45,-0.45zM7.5,12.05h0a0.45,0.45 0 0 1 0.45,0.45v0a0.45,0.45 0 0 1 -0.45,0.45h0a0.45,0.45 0 0 1 -0.45,-0.45v0a0.45,0.45 0 0 1 0.45,-0.45zM9.5,12.05h0a0.45,0.45 0 0 1 0.45,0.45v0a0.45,0.45 0 0 1 -0.45,0.45h0a0.45,0.45 0 0 1 -0.45,-0.45v0a0.45,0.45 0 0 1 0.45,-0.45zM12.5,12.05h0a0.45,0.45 0 0 1 0.45,0.45v0a0.45,0.45 0 0 1 -0.45,0.45h0a0.45,0.45 0 0 1 -0.45,-0.45v0a0.45,0.45 0 0 1 0.45,-0.45zM14.5,12.05h0a0.45,0.45 0 0 1 0.45,0.45v0a0.45,0.45 0 0 1 -0.45,0.45h0a0.45,0.45 0 0 1 -0.45,-0.45v0a0.45,0.45 0 0 1 0.45,-0.45zM15.5,12.05h0a0.45,0.45 0 0 1 0.45,0.45v0a0.45,0.45 0 0 1 -0.45,0.45h0a0.45,0.45 0 0 1 -0.45,-0.45v0a0.45,0.45 0 0 1 0.45,-0.45zM16.5,12.05h0a0.45,0.45 0 0 1 0.45,0.45v0a0.45,0.45 0 0 1 -0.45,0.45h0a0.45,0.45 0 0 1 -0.45,-0.45v0a0.45,0.45 0 0 1 0.45,-0.45zM18.5,12.05h0a0.45,0.45 0 0 1 0.45,0.45v0a0.45,0.45 0 0 1 -0.45,0.45h0a0.45,0.45 0 0 1 -0.45,-0.45v0a0.45,0.45 0 0 1 0.45,-0.45zM20.5,12.05h0a0.45,0.45 0 0 1 0.45,0.45v0a0.45,0.45 0 0 1 -0.45,0.45h0a0.45,0.45 0 0 1 -0.45,-0.45v0a0.45,0.45 0 0 1 0.45,-0.45zM23.5,12.05h0a0.45,0.45 0 0 1 0.45,0.45v0a0.45,0.45 0 0 1 -0.45,0.45h0a0.45,0.45 0 0 1 -0.45,-0.45v0a0.45,0.45 0 0 1 0.45,-0.45zM24.5,12.05h0a0.45,0.45 0 0 1 0.45,0.45v0a0.45,0.45 0 0 1 -0.45,0.45h0a0.45,0.45 0 0 1 -0.45,-0.45v0a0.45,0.45 0 0 1 0.45,-0.45zM26.5,12.05h0a0.45,0.45 0 0 1 0.45,0.45v0a0.45,0.45 0 0 1 -0.45,0.45h0a0.45,0.45 0 0 1 -0.45,-0.45v0a0.45,0.45 0 0 1 0.45,-0.45zM0.5,13.05h0a0.45,0.45 0 0 1 0.45,0.45v0a0.45,0.45 0 0 1 -0.45,0.45h0a0.45,0.45 0 0 1 -0.45,-0.45v0a0.45,0.45 0 0 1 0.45,-0.45zM1.5,13.05h0a0.45,0.45 0 0 1 0.45,0.45v0a0.45,0.45 0 0 1 -0.45,0.45h0a0.45,0.45 0 0 1 -0.45,-0.45v0a0.45,0.45 0 0 1 0.45,-0.45zM4.5,13.05h0a0.45,0.45 0 0 1 0.45,0.45v0a0.45,0.45 0 0 1 -0.45,0.45h0a0.45,0.45 0 0 1 -0.45,-0.45v0a0.45,0.45 0 0 1 0.45,-0.45zM5.5,13.05h0a0.45,0.45 0 0 1 0.45,0.45v0a0.45,0.45 0 0 1 -0.45,0.45h0a0.45,0.45 0 0 1 -0.45,-0.45v0a0.45,0.45 0 0 1 0.45,-0.45zM6.5,13.05h0a0.45,0.45 0 0 1 0.45,0.45v0a0.45,0.45 0 0 1 -0.45,0.45h0a0.45,0.45 0 0 1 -0.45,-0.45v0a0.45,0.45 0 0 1 0.45,-0.45zM8.5,13.05h0a0.45,0.45 0 0 1 0.45,0.45v0a0.45,0.45 0 0 1 -0.45,0.45h0a0.45,0.45 0 0 1 -0.45,-0.45v0a0.45,0.45 0 0 1 0.45,-0.45zM12.5,13.05h0a0.45,0.45 0 0 1 0.45,0.45v0a0.45,0.45 0 0 1 -0.45,0.45h0a0.45,0.45 0 0 1 -0.45,-0.45v0a0.45,0.45 0 0 1 0.45,-0.45zM13.5,13.05h0a0.45,0.45 0 0 1 0.45,0.45v0a0.45,0.45 0 0 1 -0.45,0.45h0a0.45,0.45 0 0 1 -0.45,-0.45v0a0.45,0.45 0 0 1 0.45,-0.45zM14.5,13.05h0a0.45,0.45 0 0 1 0.45,0.45v0a0.45,0.45 0 0 1 -0.45,0.45h0a0.45,0.45 0 0 1 -0.45,-0.45v0a0.45,0.45 0 0 1 0.45,-0.45zM15.5,13.05h0a0.45,0.45 0 0 1 0.45,0.45v0a0.45,0.45 0 0 1 -0.45,0.45h0a0.45,0.45 0 0 1 -0.45,-0.45v0a0.45,0.45 0 0 1 0.45,-0.45zM19.5,13.05h0a0.45,0.45 0 0 1 0.45,0.45v0a0.45,0.45 0 0 1 -0.45,0.45h0a0.45,0.45 0 0 1 -0.45,-0.45v0a0.45,0.45 0 0 1 0.45,-0.45zM23.5,13.05h0a0.45,0.45 0 0 1 0.45,0.45v0a0.45,0.45 0 0 1 -0.45,0.45h0a0.45,0.45 0 0 1 -0.45,-0.45v0a0.45,0.45 0 0 1 0.45,-0.45zM24.5,13.05h0a0.45,0.45 0 0 1 0.45,0.45v0a0.45,0.45 0 0 1 -0.45,0.45h0a0.45,0.45 0 0 1 -0.45,-0.45v0a0.45,0.45 0 0 1 0.45,-0.45zM26.5,13.05h0a0.45,0.45 0 0 1 0.45,0.45v0a0.45,0.45 0 0 1 -0.45,0.45h0a0.45,0.45 0 0 1 -0.45,-0.45v0a0.45,0.45 0 0 1 0.45,-0.45zM27.5,13.05h0a0.45,0.45 0 0 1 0.45,0.45v0a0.45,0.45 0 0 1 -0.45,0.45h0a0.45,0.45 0 0 1 -0.45,-0.45v0a0.45,0.45 0 0 1 0.45,-0.45zM0.5,14.05h0a0.45,0.45 0 0 1 0.45,0.45v0a0.45,0.45 0 0 1 -0.45,0.45h0a0.45,0.45 0 0 1 -0.45,-0.45v0a0.45,0.45 0 0 1 0.45,-0.45zM1.5,14.05h0a0.45,0.45 0 0 1 0.45,0.45v0a0.45,0.45 0 0 1 -0.45,0.45h0a0.45,0.45 0 0 1 -0.45,-0.45v0a0.45,0.45 0 0 1 0.45,-0.45zM2.5,14.05h0a0.45,0.45 0 0 1 0.45,0.45v0a0.45,0.45 0 0 1 -0.45,0.45h0a0.45,0.45 0 0 1 -0.45,-0.45v0a0.45,0.45 0 0 1 0.45,-0.45zM7.5,14.05h0a0.45,0.45 0 0 1 0.45,0.45v0a0.45,0.45 0 0 1 -0.45,0.45h0a0.45,0.45 0 0 1 -0.45,-0.45v0a0.45,0.45 0 0 1 0.45,-0.45zM8.5,14.05h0a0.45,0.45 0 0 1 0.45,0.45v0a0.45,0.45 0 0 1 -0.45,0.45h0a0.45,0.45 0 0 1 -0.45,-0.45v0a0.45,0.45 0 0 1 0.45,-0.45zM10.5,14.05h0a0.45,0.45 0 0 1 0.45,0.45v0a0.45,0.45 0 0 1 -0.45,0.45h0a0.45,0.45 0 0 1 -0.45,-0.45v0a0.45,0.45 0 0 1 0.45,-0.45zM11.5,14.05h0a0.45,0.45 0 0 1 0.45,0.45v0a0.45,0.45 0 0 1 -0.45,0.45h0a0.45,0.45 0 0 1 -0.45,-0.45v0a0.45,0.45 0 0 1 0.45,-0.45zM12.5,14.05h0a0.45,0.45 0 0 1 0.45,0.45v0a0.45,0.45 0 0 1 -0.45,0.45h0a0.45,0.45 0 0 1 -0.45,-0.45v0a0.45,0.45 0 0 1 0.45,-0.45zM14.5,14.05h0a0.45,0.45 0 0 1 0.45,0.45v0a0.45,0.45 0 0 1 -0.45,0.45h0a0.45,0.45 0 0 1 -0.45,-0.45v0a0.45,0.45 0 0 1 0.45,-0.45zM15.5,14.05h0a0.45,0.45 0 0 1 0.45,0.45v0a0.45,0.45 0 0 1 -0.45,0.45h0a0.45,0.45 0 0 1 -0.45,-0.45v0a0.45,0.45 0 0 1 0.45,-0.45zM16.5,14.05h0a0.45,0.45 0 0 1 0.45,0.45v0a0.45,0.45 0 0 1 -0.45,0.45h0a0.45,0.45 0 0 1 -0.45,-0.45v0a0.45,0.45 0 0 1 0.45,-0.45zM17.5,14.05h0a0.45,0.45 0 0 1 0.45,0.45v0a0.45,0.45 0 0 1 -0.45,0.45h0a0.45,0.45 0 0 1 -0.45,-0.45v0a0.45,0.45 0 0 1 0.45,-0.45zM18.5,14.05h0a0.45,0.45 0 0 1 0.45,0.45v0a0.45,0.45 0 0 1 -0.45,0.45h0a0.45,0.45 0 0 1 -0.45,-0.45v0a0.45,0.45 0 0 1 0.45,-0.45zM19.5,14.05h0a0.45,0.45 0 0 1 0.45,0.45v0a0.45,0.45 0 0 1 -0.45,0.45h0a0.45,0.45 0 0 1 -0.45,-0.45v0a0.45,0.45 0 0 1 0.45,-0.45zM20.5,14.05h0a0.45,0.45 0 0 1 0.45,0.45v0a0.45,0.45 0 0 1 -0.45,0.45h0a0.45,0.45 0 0 1 -0.45,-0.45v0a0.45,0.45 0 0 1 0.45,-0.45zM21.5,14.05h0a0.45,0.45 0 0 1 0.45,0.45v0a0.45,0.45 0 0 1 -0.45,0.45h0a0.45,0.45 0 0 1 -0.45,-0.45v0a0.45,0.45 0 0 1 0.45,-0.45zM23.5,14.05h0a0.45,0.45 0 0 1 0.45,0.45v0a0.45,0.45 0 0 1 -0.45,0.45h0a0.45,0.45 0 0 1 -0.45,-0.45v0a0.45,0.45 0 0 1 0.45,-0.45zM26.5,14.05h0a0.45,0.45 0 0 1 0.45,0.45v0a0.45,0.45 0 0 1 -0.45,0.45h0a0.45,0.45 0 0 1 -0.45,-0.45v0a0.45,0.45 0 0 1 0.45,-0.45zM1.5,15.05h0a0.45,0.45 0 0 1 0.45,0.45v0a0.45,0.45 0 0 1 -0.45,0.45h0a0.45,0.45 0 0 1 -0.45,-0.45v0a0.45,0.45 0 0 1 0.45,-0.45zM3.5,15.05h0a0.45,0.45 0 0 1 0.45,0.45v0a0.45,0.45 0 0 1 -0.45,0.45h0a0.45,0.45 0 0 1 -0.45,-0.45v0a0.45,0.45 0 0 1 0.45,-0.45zM4.5,15.05h0a0.45,0.45 0 0 1 0.45,0.45v0a0.45,0.45 0 0 1 -0.45,0.45h0a0.45,0.45 0 0 1 -0.45,-0.45v0a0.45,0.45 0 0 1 0.45,-0.45zM6.5,15.05h0a0.45,0.45 0 0 1 0.45,0.45v0a0.45,0.45 0 0 1 -0.45,0.45h0a0.45,0.45 0 0 1 -0.45,-0.45v0a0.45,0.45 0 0 1 0.45,-0.45zM9.5,15.05h0a0.45,0.45 0 0 1 0.45,0.45v0a0.45,0.45 0 0 1 -0.45,0.45h0a0.45,0.45 0 0 1 -0.45,-0.45v0a0.45,0.45 0 0 1 0.45,-0.45zM12.5,15.05h0a0.45,0.45 0 0 1 0.45,0.45v0a0.45,0.45 0 0 1 -0.45,0.45h0a0.45,0.45 0 0 1 -0.45,-0.45v0a0.45,0.45 0 0 1 0.45,-0.45zM15.5,15.05h0a0.45,0.45 0 0 1 0.45,0.45v0a0.45,0.45 0 0 1 -0.45,0.45h0a0.45,0.45 0 0 1 -0.45,-0.45v0a0.45,0.45 0 0 1 0.45,-0.45zM20.5,15.05h0a0.45,0.45 0 0 1 0.45,0.45v0a0.45,0.45 0 0 1 -0.45,0.45h0a0.45,0.45 0 0 1 -0.45,-0.45v0a0.45,0.45 0 0 1 0.45,-0.45zM26.5,15.05h0a0.45,0.45 0 0 1 0.45,0.45v0a0.45,0.45 0 0 1 -0.45,0.45h0a0.45,0.45 0 0 1 -0.45,-0.45v0a0.45,0.45 0 0 1 0.45,-0.45zM28.5,15.05h0a0.45,0.45 0 0 1 0.45,0.45v0a0.45,0.45 0 0 1 -0.45,0.45h0a0.45,0.45 0 0 1 -0.45,-0.45v0a0.45,0.45 0 0 1 0.45,-0.45zM0.5,16.05h0a0.45,0.45 0 0 1 0.45,0.45v0a0.45,0.45 0 0 1 -0.45,0.45h0a0.45,0.45 0 0 1 -0.45,-0.45v0a0.45,0.45 0 0 1 0.45,-0.45zM2.5,16.05h0a0.45,0.45 0 0 1 0.45,0.45v0a0.45,0.45 0 0 1 -0.45,0.45h0a0.45,0.45 0 0 1 -0.45,-0.45v0a0.45,0.45 0 0 1 0.45,-0.45zM5.5,16.05h0a0.45,0.45 0 0 1 0.45,0.45v0a0.45,0.45 0 0 1 -0.45,0.45h0a0.45,0.45 0 0 1 -0.45,-0.45v0a0.45,0.45 0 0 1 0.45,-0.45zM7.5,16.05h0a0.45,0.45 0 0 1 0.45,0.45v0a0.45,0.45 0 0 1 -0.45,0.45h0a0.45,0.45 0 0 1 -0.45,-0.45v0a0.45,0.45 0 0 1 0.45,-0.45zM8.5,16.05h0a0.45,0.45 0 0 1 0.45,0.45v0a0.45,0.45 0 0 1 -0.45,0.45h0a0.45,0.45 0 0 1 -0.45,-0.45v0a0.45,0.45 0 0 1 0.45,-0.45zM11.5,16.05h0a0.45,0.45 0 0 1 0.45,0.45v0a0.45,0.45 0 0 1 -0.45,0.45h0a0.45,0.45 0 0 1 -0.45,-0.45v0a0.45,0.45 0 0 1 0.45,-0.45zM18.5,16.05h0a0.45,0.45 0 0 1 0.45,0.45v0a0.45,0.45 0 0 1 -0.45,0.45h0a0.45,0.45 0 0 1 -0.45,-0.45v0a0.45,0.45 0 0 1 0.45,-0.45zM23.5,16.05h0a0.45,0.45 0 0 1 0.45,0.45v0a0.45,0.45 0 0 1 -0.45,0.45h0a0.45,0.45 0 0 1 -0.45,-0.45v0a0.45,0.45 0 0 1 0.45,-0.45zM24.5,16.05h0a0.45,0.45 0 0 1 0.45,0.45v0a0.45,0.45 0 0 1 -0.45,0.45h0a0.45,0.45 0 0 1 -0.45,-0.45v0a0.45,0.45 0 0 1 0.45,-0.45zM26.5,16.05h0a0.45,0.45 0 0 1 0.45,0.45v0a0.45,0.45 0 0 1 -0.45,0.45h0a0.45,0.45 0 0 1 -0.45,-0.45v0a0.45,0.45 0 0 1 0.45,-0.45zM0.5,17.05h0a0.45,0.45 0 0 1 0.45,0.45v0a0.45,0.45 0 0 1 -0.45,0.45h0a0.45,0.45 0 0 1 -0.45,-0.45v0a0.45,0.45 0 0 1 0.45,-0.45zM1.5,17.05h0a0.45,0.45 0 0 1 0.45,0.45v0a0.45,0.45 0 0 1 -0.45,0.45h0a0.45,0.45 0 0 1 -0.45,-0.45v0a0.45,0.45 0 0 1 0.45,-0.45zM2.5,17.05h0a0.45,0.45 0 0 1 0.45,0.45v0a0.45,0.45 0 0 1 -0.45,0.45h0a0.45,0.45 0 0 1 -0.45,-0.45v0a0.45,0.45 0 0 1 0.45,-0.45zM4.5,17.05h0a0.45,0.45 0 0 1 0.45,0.45v0a0.45,0.45 0 0 1 -0.45,0.45h0a0.45,0.45 0 0 1 -0.45,-0.45v0a0.45,0.45 0 0 1 0.45,-0.45zM5.5,17.05h0a0.45,0.45 0 0 1 0.45,0.45v0a0.45,0.45 0 0 1 -0.45,0.45h0a0.45,0.45 0 0 1 -0.45,-0.45v0a0.45,0.45 0 0 1 0.45,-0.45zM6.5,17.05h0a0.45,0.45 0 0 1 0.45,0.45v0a0.45,0.45 0 0 1 -0.45,0.45h0a0.45,0.45 0 0 1 -0.45,-0.45v0a0.45,0.45 0 0 1 0.45,-0.45zM7.5,17.05h0a0.45,0.45 0 0 1 0.45,0.45v0a0.45,0.45 0 0 1 -0.45,0.45h0a0.45,0.45 0 0 1 -0.45,-0.45v0a0.45,0.45 0 0 1 0.45,-0.45zM8.5,17.05h0a0.45,0.45 0 0 1 0.45,0.45v0a0.45,0.45 0 0 1 -0.45,0.45h0a0.45,0.45 0 0 1 -0.45,-0.45v0a0.45,0.45 0 0 1 0.45,-0.45zM9.5,17.05h0a0.45,0.45 0 0 1 0.45,0.45v0a0.45,0.45 0 0 1 -0.45,0.45h0a0.45,0.45 0 0 1 -0.45,-0.45v0a0.45,0.45 0 0 1 0.45,-0.45zM13.5,17.05h0a0.45,0.45 0 0 1 0.45,0.45v0a0.45,0.45 0 0 1 -0.45,0.45h0a0.45,0.45 0 0 1 -0.45,-0.45v0a0.45,0.45 0 0 1 0.45,-0.45zM14.5,17.05h0a0.45,0.45 0 0 1 0.45,0.45v0a0.45,0.45 0 0 1 -0.45,0.45h0a0.45,0.45 0 0 1 -0.45,-0.45v0a0.45,0.45 0 0 1 0.45,-0.45zM15.5,17.05h0a0.45,0.45 0 0 1 0.45,0.45v0a0.45,0.45 0 0 1 -0.45,0.45h0a0.45,0.45 0 0 1 -0.45,-0.45v0a0.45,0.45 0 0 1 0.45,-0.45zM18.5,17.05h0a0.45,0.45 0 0 1 0.45,0.45v0a0.45,0.45 0 0 1 -0.45,0.45h0a0.45,0.45 0 0 1 -0.45,-0.45v0a0.45,0.45 0 0 1 0.45,-0.45zM19.5,17.05h0a0.45,0.45 0 0 1 0.45,0.45v0a0.45,0.45 0 0 1 -0.45,0.45h0a0.45,0.45 0 0 1 -0.45,-0.45v0a0.45,0.45 0 0 1 0.45,-0.45zM23.5,17.05h0a0.45,0.45 0 0 1 0.45,0.45v0a0.45,0.45 0 0 1 -0.45,0.45h0a0.45,0.45 0 0 1 -0.45,-0.45v0a0.45,0.45 0 0 1 0.45,-0.45zM24.5,17.05h0a0.45,0.45 0 0 1 0.45,0.45v0a0.45,0.45 0 0 1 -0.45,0.45h0a0.45,0.45 0 0 1 -0.45,-0.45v0a0.45,0.45 0 0 1 0.45,-0.45zM27.5,17.05h0a0.45,0.45 0 0 1 0.45,0.45v0a0.45,0.45 0 0 1 -0.45,0.45h0a0.45,0.45 0 0 1 -0.45,-0.45v0a0.45,0.45 0 0 1 0.45,-0.45zM1.5,18.05h0a0.45,0.45 0 0 1 0.45,0.45v0a0.45,0.45 0 0 1 -0.45,0.45h0a0.45,0.45 0 0 1 -0.45,-0.45v0a0.45,0.45 0 0 1 0.45,-0.45zM3.5,18.05h0a0.45,0.45 0 0 1 0.45,0.45v0a0.45,0.45 0 0 1 -0.45,0.45h0a0.45,0.45 0 0 1 -0.45,-0.45v0a0.45,0.45 0 0 1 0.45,-0.45zM7.5,18.05h0a0.45,0.45 0 0 1 0.45,0.45v0a0.45,0.45 0 0 1 -0.45,0.45h0a0.45,0.45 0 0 1 -0.45,-0.45v0a0.45,0.45 0 0 1 0.45,-0.45zM9.5,18.05h0a0.45,0.45 0 0 1 0.45,0.45v0a0.45,0.45 0 0 1 -0.45,0.45h0a0.45,0.45 0 0 1 -0.45,-0.45v0a0.45,0.45 0 0 1 0.45,-0.45zM14.5,18.05h0a0.45,0.45 0 0 1 0.45,0.45v0a0.45,0.45 0 0 1 -0.45,0.45h0a0.45,0.45 0 0 1 -0.45,-0.45v0a0.45,0.45 0 0 1 0.45,-0.45zM15.5,18.05h0a0.45,0.45 0 0 1 0.45,0.45v0a0.45,0.45 0 0 1 -0.45,0.45h0a0.45,0.45 0 0 1 -0.45,-0.45v0a0.45,0.45 0 0 1 0.45,-0.45zM19.5,18.05h0a0.45,0.45 0 0 1 0.45,0.45v0a0.45,0.45 0 0 1 -0.45,0.45h0a0.45,0.45 0 0 1 -0.45,-0.45v0a0.45,0.45 0 0 1 0.45,-0.45zM22.5,18.05h0a0.45,0.45 0 0 1 0.45,0.45v0a0.45,0.45 0 0 1 -0.45,0.45h0a0.45,0.45 0 0 1 -0.45,-0.45v0a0.45,0.45 0 0 1 0.45,-0.45zM25.5,18.05h0a0.45,0.45 0 0 1 0.45,0.45v0a0.45,0.45 0 0 1 -0.45,0.45h0a0.45,0.45 0 0 1 -0.45,-0.45v0a0.45,0.45 0 0 1 0.45,-0.45zM26.5,18.05h0a0.45,0.45 0 0 1 0.45,0.45v0a0.45,0.45 0 0 1 -0.45,0.45h0a0.45,0.45 0 0 1 -0.45,-0.45v0a0.45,0.45 0 0 1 0.45,-0.45zM0.5,19.05h0a0.45,0.45 0 0 1 0.45,0.45v0a0.45,0.45 0 0 1 -0.45,0.45h0a0.45,0.45 0 0 1 -0.45,-0.45v0a0.45,0.45 0 0 1 0.45,-0.45zM3.5,19.05h0a0.45,0.45 0 0 1 0.45,0.45v0a0.45,0.45 0 0 1 -0.45,0.45h0a0.45,0.45 0 0 1 -0.45,-0.45v0a0.45,0.45 0 0 1 0.45,-0.45zM4.5,19.05h0a0.45,0.45 0 0 1 0.45,0.45v0a0.45,0.45 0 0 1 -0.45,0.45h0a0.45,0.45 0 0 1 -0.45,-0.45v0a0.45,0.45 0 0 1 0.45,-0.45zM6.5,19.05h0a0.45,0.45 0 0 1 0.45,0.45v0a0.45,0.45 0 0 1 -0.45,0.45h0a0.45,0.45 0 0 1 -0.45,-0.45v0a0.45,0.45 0 0 1 0.45,-0.45zM7.5,19.05h0a0.45,0.45 0 0 1 0.45,0.45v0a0.45,0.45 0 0 1 -0.45,0.45h0a0.45,0.45 0 0 1 -0.45,-0.45v0a0.45,0.45 0 0 1 0.45,-0.45zM9.5,19.05h0a0.45,0.45 0 0 1 0.45,0.45v0a0.45,0.45 0 0 1 -0.45,0.45h0a0.45,0.45 0 0 1 -0.45,-0.45v0a0.45,0.45 0 0 1 0.45,-0.45zM10.5,19.05h0a0.45,0.45 0 0 1 0.45,0.45v0a0.45,0.45 0 0 1 -0.45,0.45h0a0.45,0.45 0 0 1 -0.45,-0.45v0a0.45,0.45 0 0 1 0.45,-0.45zM11.5,19.05h0a0.45,0.45 0 0 1 0.45,0.45v0a0.45,0.45 0 0 1 -0.45,0.45h0a0.45,0.45 0 0 1 -0.45,-0.45v0a0.45,0.45 0 0 1 0.45,-0.45zM16.5,19.05h0a0.45,0.45 0 0 1 0.45,0.45v0a0.45,0.45 0 0 1 -0.45,0.45h0a0.45,0.45 0 0 1 -0.45,-0.45v0a0.45,0.45 0 0 1 0.45,-0.45zM18.5,19.05h0a0.45,0.45 0 0 1 0.45,0.45v0a0.45,0.45 0 0 1 -0.45,0.45h0a0.45,0.45 0 0 1 -0.45,-0.45v0a0.45,0.45 0 0 1 0.45,-0.45zM19.5,19.05h0a0.45,0.45 0 0 1 0.45,0.45v0a0.45,0.45 0 0 1 -0.45,0.45h0a0.45,0.45 0 0 1 -0.45,-0.45v0a0.45,0.45 0 0 1 0.45,-0.45zM20.5,19.05h0a0.45,0.45 0 0 1 0.45,0.45v0a0.45,0.45 0 0 1 -0.45,0.45h0a0.45,0.45 0 0 1 -0.45,-0.45v0a0.45,0.45 0 0 1 0.45,-0.45zM21.5,19.05h0a0.45,0.45 0 0 1 0.45,0.45v0a0.45,0.45 0 0 1 -0.45,0.45h0a0.45,0.45 0 0 1 -0.45,-0.45v0a0.45,0.45 0 0 1 0.45,-0.45zM23.5,19.05h0a0.45,0.45 0 0 1 0.45,0.45v0a0.45,0.45 0 0 1 -0.45,0.45h0a0.45,0.45 0 0 1 -0.45,-0.45v0a0.45,0.45 0 0 1 0.45,-0.45zM24.5,19.05h0a0.45,0.45 0 0 1 0.45,0.45v0a0.45,0.45 0 0 1 -0.45,0.45h0a0.45,0.45 0 0 1 -0.45,-0.45v0a0.45,0.45 0 0 1 0.45,-0.45zM26.5,19.05h0a0.45,0.45 0 0 1 0.45,0.45v0a0.45,0.45 0 0 1 -0.45,0.45h0a0.45,0.45 0 0 1 -0.45,-0.45v0a0.45,0.45 0 0 1 0.45,-0.45zM28.5,19.05h0a0.45,0.45 0 0 1 0.45,0.45v0a0.45,0.45 0 0 1 -0.45,0.45h0a0.45,0.45 0 0 1 -0.45,-0.45v0a0.45,0.45 0 0 1 0.45,-0.45zM1.5,20.05h0a0.45,0.45 0 0 1 0.45,0.45v0a0.45,0.45 0 0 1 -0.45,0.45h0a0.45,0.45 0 0 1 -0.45,-0.45v0a0.45,0.45 0 0 1 0.45,-0.45zM2.5,20.05h0a0.45,0.45 0 0 1 0.45,0.45v0a0.45,0.45 0 0 1 -0.45,0.45h0a0.45,0.45 0 0 1 -0.45,-0.45v0a0.45,0.45 0 0 1 0.45,-0.45zM5.5,20.05h0a0.45,0.45 0 0 1 0.45,0.45v0a0.45,0.45 0 0 1 -0.45,0.45h0a0.45,0.45 0 0 1 -0.45,-0.45v0a0.45,0.45 0 0 1 0.45,-0.45zM8.5,20.05h0a0.45,0.45 0 0 1 0.45,0.45v0a0.45,0.45 0 0 1 -0.45,0.45h0a0.45,0.45 0 0 1 -0.45,-0.45v0a0.45,0.45 0 0 1 0.45,-0.45zM9.5,20.05h0a0.45,0.45 0 0 1 0.45,0.45v0a0.45,0.45 0 0 1 -0.45,0.45h0a0.45,0.45 0 0 1 -0.45,-0.45v0a0.45,0.45 0 0 1 0.45,-0.45zM12.5,20.05h0a0.45,0.45 0 0 1 0.45,0.45v0a0.45,0.45 0 0 1 -0.45,0.45h0a0.45,0.45 0 0 1 -0.45,-0.45v0a0.45,0.45 0 0 1 0.45,-0.45zM13.5,20.05h0a0.45,0.45 0 0 1 0.45,0.45v0a0.45,0.45 0 0 1 -0.45,0.45h0a0.45,0.45 0 0 1 -0.45,-0.45v0a0.45,0.45 0 0 1 0.45,-0.45zM15.5,20.05h0a0.45,0.45 0 0 1 0.45,0.45v0a0.45,0.45 0 0 1 -0.45,0.45h0a0.45,0.45 0 0 1 -0.45,-0.45v0a0.45,0.45 0 0 1 0.45,-0.45zM16.5,20.05h0a0.45,0.45 0 0 1 0.45,0.45v0a0.45,0.45 0 0 1 -0.45,0.45h0a0.45,0.45 0 0 1 -0.45,-0.45v0a0.45,0.45 0 0 1 0.45,-0.45zM25.5,20.05h0a0.45,0.45 0 0 1 0.45,0.45v0a0.45,0.45 0 0 1 -0.45,0.45h0a0.45,0.45 0 0 1 -0.45,-0.45v0a0.45,0.45 0 0 1 0.45,-0.45zM26.5,20.05h0a0.45,0.45 0 0 1 0.45,0.45v0a0.45,0.45 0 0 1 -0.45,0.45h0a0.45,0.45 0 0 1 -0.45,-0.45v0a0.45,0.45 0 0 1 0.45,-0.45zM27.5,20.05h0a0.45,0.45 0 0 1 0.45,0.45v0a0.45,0.45 0 0 1 -0.45,0.45h0a0.45,0.45 0 0 1 -0.45,-0.45v0a0.45,0.45 0 0 1 0.45,-0.45zM28.5,20.05h0a0.45,0.45 0 0 1 0.45,0.45v0a0.45,0.45 0 0 1 -0.45,0.45h0a0.45,0.45 0 0 1 -0.45,-0.45v0a0.45,0.45 0 0 1 0.45,-0.45zM9.5,21.05h0a0.45,0.45 0 0 1 0.45,0.45v0a0.45,0.45 0 0 1 -0.45,0.45h0a0.45,0.45 0 0 1 -0.45,-0.45v0a0.45,0.45 0 0 1 0.45,-0.45zM12.5,21.05h0a0.45,0.45 0 0 1 0.45,0.45v0a0.45,0.45 0 0 1 -0.45,0.45h0a0.45,0.45 0 0 1 -0.45,-0.45v0a0.45,0.45 0 0 1 0.45,-0.45zM13.5,21.05h0a0.45,0.45 0 0 1 0.45,0.45v0a0.45,0.45 0 0 1 -0.45,0.45h0a0.45,0.45 0 0 1 -0.45,-0.45v0a0.45,0.45 0 0 1 0.45,-0.45zM14.5,21.05h0a0.45,0.45 0 0 1 0.45,0.45v0a0.45,0.45 0 0 1 -0.45,0.45h0a0.45,0.45 0 0 1 -0.45,-0.45v0a0.45,0.45 0 0 1 0.45,-0.45zM15.5,21.05h0a0.45,0.45 0 0 1 0.45,0.45v0a0.45,0.45 0 0 1 -0.45,0.45h0a0.45,0.45 0 0 1 -0.45,-0.45v0a0.45,0.45 0 0 1 0.45,-0.45zM17.5,21.05h0a0.45,0.45 0 0 1 0.45,0.45v0a0.45,0.45 0 0 1 -0.45,0.45h0a0.45,0.45 0 0 1 -0.45,-0.45v0a0.45,0.45 0 0 1 0.45,-0.45zM18.5,21.05h0a0.45,0.45 0 0 1 0.45,0.45v0a0.45,0.45 0 0 1 -0.45,0.45h0a0.45,0.45 0 0 1 -0.45,-0.45v0a0.45,0.45 0 0 1 0.45,-0.45zM19.5,21.05h0a0.45,0.45 0 0 1 0.45,0.45v0a0.45,0.45 0 0 1 -0.45,0.45h0a0.45,0.45 0 0 1 -0.45,-0.45v0a0.45,0.45 0 0 1 0.45,-0.45zM25.5,21.05h0a0.45,0.45 0 0 1 0.45,0.45v0a0.45,0.45 0 0 1 -0.45,0.45h0a0.45,0.45 0 0 1 -0.45,-0.45v0a0.45,0.45 0 0 1 0.45,-0.45zM10.5,22.05h0a0.45,0.45 0 0 1 0.45,0.45v0a0.45,0.45 0 0 1 -0.45,0.45h0a0.45,0.45 0 0 1 -0.45,-0.45v0a0.45,0.45 0 0 1 0.45,-0.45zM11.5,22.05h0a0.45,0.45 0 0 1 0.45,0.45v0a0.45,0.45 0 0 1 -0.45,0.45h0a0.45,0.45 0 0 1 -0.45,-0.45v0a0.45,0.45 0 0 1 0.45,-0.45zM12.5,22.05h0a0.45,0.45 0 0 1 0.45,0.45v0a0.45,0.45 0 0 1 -0.45,0.45h0a0.45,0.45 0 0 1 -0.45,-0.45v0a0.45,0.45 0 0 1 0.45,-0.45zM14.5,22.05h0a0.45,0.45 0 0 1 0.45,0.45v0a0.45,0.45 0 0 1 -0.45,0.45h0a0.45,0.45 0 0 1 -0.45,-0.45v0a0.45,0.45 0 0 1 0.45,-0.45zM15.5,22.05h0a0.45,0.45 0 0 1 0.45,0.45v0a0.45,0.45 0 0 1 -0.45,0.45h0a0.45,0.45 0 0 1 -0.45,-0.45v0a0.45,0.45 0 0 1 0.45,-0.45zM16.5,22.05h0a0.45,0.45 0 0 1 0.45,0.45v0a0.45,0.45 0 0 1 -0.45,0.45h0a0.45,0.45 0 0 1 -0.45,-0.45v0a0.45,0.45 0 0 1 0.45,-0.45zM18.5,22.05h0a0.45,0.45 0 0 1 0.45,0.45v0a0.45,0.45 0 0 1 -0.45,0.45h0a0.45,0.45 0 0 1 -0.45,-0.45v0a0.45,0.45 0 0 1 0.45,-0.45zM26.5,22.05h0a0.45,0.45 0 0 1 0.45,0.45v0a0.45,0.45 0 0 1 -0.45,0.45h0a0.45,0.45 0 0 1 -0.45,-0.45v0a0.45,0.45 0 0 1 0.45,-0.45zM9.5,23.05h0a0.45,0.45 0 0 1 0.45,0.45v0a0.45,0.45 0 0 1 -0.45,0.45h0a0.45,0.45 0 0 1 -0.45,-0.45v0a0.45,0.45 0 0 1 0.45,-0.45zM10.5,23.05h0a0.45,0.45 0 0 1 0.45,0.45v0a0.45,0.45 0 0 1 -0.45,0.45h0a0.45,0.45 0 0 1 -0.45,-0.45v0a0.45,0.45 0 0 1 0.45,-0.45zM12.5,23.05h0a0.45,0.45 0 0 1 0.45,0.45v0a0.45,0.45 0 0 1 -0.45,0.45h0a0.45,0.45 0 0 1 -0.45,-0.45v0a0.45,0.45 0 0 1 0.45,-0.45zM13.5,23.05h0a0.45,0.45 0 0 1 0.45,0.45v0a0.45,0.45 0 0 1 -0.45,0.45h0a0.45,0.45 0 0 1 -0.45,-0.45v0a0.45,0.45 0 0 1 0.45,-0.45zM14.5,23.05h0a0.45,0.45 0 0 1 0.45,0.45v0a0.45,0.45 0 0 1 -0.45,0.45h0a0.45,0.45 0 0 1 -0.45,-0.45v0a0.45,0.45 0 0 1 0.45,-0.45zM15.5,23.05h0a0.45,0.45 0 0 1 0.45,0.45v0a0.45,0.45 0 0 1 -0.45,0.45h0a0.45,0.45 0 0 1 -0.45,-0.45v0a0.45,0.45 0 0 1 0.45,-0.45zM18.5,23.05h0a0.45,0.45 0 0 1 0.45,0.45v0a0.45,0.45 0 0 1 -0.45,0.45h0a0.45,0.45 0 0 1 -0.45,-0.45v0a0.45,0.45 0 0 1 0.45,-0.45zM19.5,23.05h0a0.45,0.45 0 0 1 0.45,0.45v0a0.45,0.45 0 0 1 -0.45,0.45h0a0.45,0.45 0 0 1 -0.45,-0.45v0a0.45,0.45 0 0 1 0.45,-0.45zM26.5,23.05h0a0.45,0.45 0 0 1 0.45,0.45v0a0.45,0.45 0 0 1 -0.45,0.45h0a0.45,0.45 0 0 1 -0.45,-0.45v0a0.45,0.45 0 0 1 0.45,-0.45zM27.5,23.05h0a0.45,0.45 0 0 1 0.45,0.45v0a0.45,0.45 0 0 1 -0.45,0.45h0a0.45,0.45 0 0 1 -0.45,-0.45v0a0.45,0.45 0 0 1 0.45,-0.45zM28.5,23.05h0a0.45,0.45 0 0 1 0.45,0.45v0a0.45,0.45 0 0 1 -0.45,0.45h0a0.45,0.45 0 0 1 -0.45,-0.45v0a0.45,0.45 0 0 1 0.45,-0.45zM10.5,24.05h0a0.45,0.45 0 0 1 0.45,0.45v0a0.45,0.45 0 0 1 -0.45,0.45h0a0.45,0.45 0 0 1 -0.45,-0.45v0a0.45,0.45 0 0 1 0.45,-0.45zM11.5,24.05h0a0.45,0.45 0 0 1 0.45,0.45v0a0.45,0.45 0 0 1 -0.45,0.45h0a0.45,0.45 0 0 1 -0.45,-0.45v0a0.45,0.45 0 0 1 0.45,-0.45zM13.5,24.05h0a0.45,0.45 0 0 1 0.45,0.45v0a0.45,0.45 0 0 1 -0.45,0.45h0a0.45,0.45 0 0 1 -0.45,-0.45v0a0.45,0.45 0 0 1 0.45,-0.45zM14.5,24.05h0a0.45,0.45 0 0 1 0.45,0.45v0a0.45,0.45 0 0 1 -0.45,0.45h0a0.45,0.45 0 0 1 -0.45,-0.45v0a0.45,0.45 0 0 1 0.45,-0.45zM18.5,24.05h0a0.45,0.45 0 0 1 0.45,0.45v0a0.45,0.45 0 0 1 -0.45,0.45h0a0.45,0.45 0 0 1 -0.45,-0.45v0a0.45,0.45 0 0 1 0.45,-0.45zM19.5,24.05h0a0.45,0.45 0 0 1 0.45,0.45v0a0.45,0.45 0 0 1 -0.45,0.45h0a0.45,0.45 0 0 1 -0.45,-0.45v0a0.45,0.45 0 0 1 0.45,-0.45zM25.5,24.05h0a0.45,0.45 0 0 1 0.45,0.45v0a0.45,0.45 0 0 1 -0.45,0.45h0a0.45,0.45 0 0 1 -0.45,-0.45v0a0.45,0.45 0 0 1 0.45,-0.45zM26.5,24.05h0a0.45,0.45 0 0 1 0.45,0.45v0a0.45,0.45 0 0 1 -0.45,0.45h0a0.45,0.45 0 0 1 -0.45,-0.45v0a0.45,0.45 0 0 1 0.45,-0.45zM27.5,24.05h0a0.45,0.45 0 0 1 0.45,0.45v0a0.45,0.45 0 0 1 -0.45,0.45h0a0.45,0.45 0 0 1 -0.45,-0.45v0a0.45,0.45 0 0 1 0.45,-0.45zM28.5,24.05h0a0.45,0.45 0 0 1 0.45,0.45v0a0.45,0.45 0 0 1 -0.45,0.45h0a0.45,0.45 0 0 1 -0.45,-0.45v0a0.45,0.45 0 0 1 0.45,-0.45zM8.5,25.05h0a0.45,0.45 0 0 1 0.45,0.45v0a0.45,0.45 0 0 1 -0.45,0.45h0a0.45,0.45 0 0 1 -0.45,-0.45v0a0.45,0.45 0 0 1 0.45,-0.45zM9.5,25.05h0a0.45,0.45 0 0 1 0.45,0.45v0a0.45,0.45 0 0 1 -0.45,0.45h0a0.45,0.45 0 0 1 -0.45,-0.45v0a0.45,0.45 0 0 1 0.45,-0.45zM10.5,25.05h0a0.45,0.45 0 0 1 0.45,0.45v0a0.45,0.45 0 0 1 -0.45,0.45h0a0.45,0.45 0 0 1 -0.45,-0.45v0a0.45,0.45 0 0 1 0.45,-0.45zM14.5,25.05h0a0.45,0.45 0 0 1 0.45,0.45v0a0.45,0.45 0 0 1 -0.45,0.45h0a0.45,0.45 0 0 1 -0.45,-0.45v0a0.45,0.45 0 0 1 0.45,-0.45zM15.5,25.05h0a0.45,0.45 0 0 1 0.45,0.45v0a0.45,0.45 0 0 1 -0.45,0.45h0a0.45,0.45 0 0 1 -0.45,-0.45v0a0.45,0.45 0 0 1 0.45,-0.45zM16.5,25.05h0a0.45,0.45 0 0 1 0.45,0.45v0a0.45,0.45 0 0 1 -0.45,0.45h0a0.45,0.45 0 0 1 -0.45,-0.45v0a0.45,0.45 0 0 1 0.45,-0.45zM17.5,25.05h0a0.45,0.45 0 0 1 0.45,0.45v0a0.45,0.45 0 0 1 -0.45,0.45h0a0.45,0.45 0 0 1 -0.45,-0.45v0a0.45,0.45 0 0 1 0.45,-0.45zM18.5,25.05h0a0.45,0.45 0 0 1 0.45,0.45v0a0.45,0.45 0 0 1 -0.45,0.45h0a0.45,0.45 0 0 1 -0.45,-0.45v0a0.45,0.45 0 0 1 0.45,-0.45zM19.5,25.05h0a0.45,0.45 0 0 1 0.45,0.45v0a0.45,0.45 0 0 1 -0.45,0.45h0a0.45,0.45 0 0 1 -0.45,-0.45v0a0.45,0.45 0 0 1 0.45,-0.45zM20.5,25.05h0a0.45,0.45 0 0 1 0.45,0.45v0a0.45,0.45 0 0 1 -0.45,0.45h0a0.45,0.45 0 0 1 -0.45,-0.45v0a0.45,0.45 0 0 1 0.45,-0.45zM21.5,25.05h0a0.45,0.45 0 0 1 0.45,0.45v0a0.45,0.45 0 0 1 -0.45,0.45h0a0.45,0.45 0 0 1 -0.45,-0.45v0a0.45,0.45 0 0 1 0.45,-0.45zM22.5,25.05h0a0.45,0.45 0 0 1 0.45,0.45v0a0.45,0.45 0 0 1 -0.45,0.45h0a0.45,0.45 0 0 1 -0.45,-0.45v0a0.45,0.45 0 0 1 0.45,-0.45zM25.5,25.05h0a0.45,0.45 0 0 1 0.45,0.45v0a0.45,0.45 0 0 1 -0.45,0.45h0a0.45,0.45 0 0 1 -0.45,-0.45v0a0.45,0.45 0 0 1 0.45,-0.45zM10.5,26.05h0a0.45,0.45 0 0 1 0.45,0.45v0a0.45,0.45 0 0 1 -0.45,0.45h0a0.45,0.45 0 0 1 -0.45,-0.45v0a0.45,0.45 0 0 1 0.45,-0.45zM13.5,26.05h0a0.45,0.45 0 0 1 0.45,0.45v0a0.45,0.45 0 0 1 -0.45,0.45h0a0.45,0.45 0 0 1 -0.45,-0.45v0a0.45,0.45 0 0 1 0.45,-0.45zM15.5,26.05h0a0.45,0.45 0 0 1 0.45,0.45v0a0.45,0.45 0 0 1 -0.45,0.45h0a0.45,0.45 0 0 1 -0.45,-0.45v0a0.45,0.45 0 0 1 0.45,-0.45zM16.5,26.05h0a0.45,0.45 0 0 1 0.45,0.45v0a0.45,0.45 0 0 1 -0.45,0.45h0a0.45,0.45 0 0 1 -0.45,-0.45v0a0.45,0.45 0 0 1 0.45,-0.45zM17.5,26.05h0a0.45,0.45 0 0 1 0.45,0.45v0a0.45,0.45 0 0 1 -0.45,0.45h0a0.45,0.45 0 0 1 -0.45,-0.45v0a0.45,0.45 0 0 1 0.45,-0.45zM19.5,26.05h0a0.45,0.45 0 0 1 0.45,0.45v0a0.45,0.45 0 0 1 -0.45,0.45h0a0.45,0.45 0 0 1 -0.45,-0.45v0a0.45,0.45 0 0 1 0.45,-0.45zM22.5,26.05h0a0.45,0.45 0 0 1 0.45,0.45v0a0.45,0.45 0 0 1 -0.45,0.45h0a0.45,0.45 0 0 1 -0.45,-0.45v0a0.45,0.45 0 0 1 0.45,-0.45zM26.5,26.05h0a0.45,0.45 0 0 1 0.45,0.45v0a0.45,0.45 0 0 1 -0.45,0.45h0a0.45,0.45 0 0 1 -0.45,-0.45v0a0.45,0.45 0 0 1 0.45,-0.45zM27.5,26.05h0a0.45,0.45 0 0 1 0.45,0.45v0a0.45,0.45 0 0 1 -0.45,0.45h0a0.45,0.45 0 0 1 -0.45,-0.45v0a0.45,0.45 0 0 1 0.45,-0.45zM10.5,27.05h0a0.45,0.45 0 0 1 0.45,0.45v0a0.45,0.45 0 0 1 -0.45,0.45h0a0.45,0.45 0 0 1 -0.45,-0.45v0a0.45,0.45 0 0 1 0.45,-0.45zM11.5,27.05h0a0.45,0.45 0 0 1 0.45,0.45v0a0.45,0.45 0 0 1 -0.45,0.45h0a0.45,0.45 0 0 1 -0.45,-0.45v0a0.45,0.45 0 0 1 0.45,-0.45zM15.5,27.05h0a0.45,0.45 0 0 1 0.45,0.45v0a0.45,0.45 0 0 1 -0.45,0.45h0a0.45,0.45 0 0 1 -0.45,-0.45v0a0.45,0.45 0 0 1 0.45,-0.45zM21.5,27.05h0a0.45,0.45 0 0 1 0.45,0.45v0a0.45,0.45 0 0 1 -0.45,0.45h0a0.45,0.45 0 0 1 -0.45,-0.45v0a0.45,0.45 0 0 1 0.45,-0.45zM22.5,27.05h0a0.45,0.45 0 0 1 0.45,0.45v0a0.45,0.45 0 0 1 -0.45,0.45h0a0.45,0.45 0 0 1 -0.45,-0.45v0a0.45,0.45 0 0 1 0.45,-0.45zM23.5,27.05h0a0.45,0.45 0 0 1 0.45,0.45v0a0.45,0.45 0 0 1 -0.45,0.45h0a0.45,0.45 0 0 1 -0.45,-0.45v0a0.45,0.45 0 0 1 0.45,-0.45zM24.5,27.05h0a0.45,0.45 0 0 1 0.45,0.45v0a0.45,0.45 0 0 1 -0.45,0.45h0a0.45,0.45 0 0 1 -0.45,-0.45v0a0.45,0.45 0 0 1 0.45,-0.45zM25.5,27.05h0a0.45,0.45 0 0 1 0.45,0.45v0a0.45,0.45 0 0 1 -0.45,0.45h0a0.45,0.45 0 0 1 -0.45,-0.45v0a0.45,0.45 0 0 1 0.45,-0.45zM26.5,27.05h0a0.45,0.45 0 0 1 0.45,0.45v0a0.45,0.45 0 0 1 -0.45,0.45h0a0.45,0.45 0 0 1 -0.45,-0.45v0a0.45,0.45 0 0 1 0.45,-0.45zM28.5,27.05h0a0.45,0.45 0 0 1 0.45,0.45v0a0.45,0.45 0 0 1 -0.45,0.45h0a0.45,0.45 0 0 1 -0.45,-0.45v0a0.45,0.45 0 0 1 0.45,-0.45zM9.5,28.05h0a0.45,0.45 0 0 1 0.45,0.45v0a0.45,0.45 0 0 1 -0.45,0.45h0a0.45,0.45 0 0 1 -0.45,-0.45v0a0.45,0.45 0 0 1 0.45,-0.45zM10.5,28.05h0a0.45,0.45 0 0 1 0.45,0.45v0a0.45,0.45 0 0 1 -0.45,0.45h0a0.45,0.45 0 0 1 -0.45,-0.45v0a0.45,0.45 0 0 1 0.45,-0.45zM12.5,28.05h0a0.45,0.45 0 0 1 0.45,0.45v0a0.45,0.45 0 0 1 -0.45,0.45h0a0.45,0.45 0 0 1 -0.45,-0.45v0a0.45,0.45 0 0 1 0.45,-0.45zM13.5,28.05h0a0.45,0.45 0 0 1 0.45,0.45v0a0.45,0.45 0 0 1 -0.45,0.45h0a0.45,0.45 0 0 1 -0.45,-0.45v0a0.45,0.45 0 0 1 0.45,-0.45zM18.5,28.05h0a0.45,0.45 0 0 1 0.45,0.45v0a0.45,0.45 0 0 1 -0.45,0.45h0a0.45,0.45 0 0 1 -0.45,-0.45v0a0.45,0.45 0 0 1 0.45,-0.45zM24.5,28.05h0a0.45,0.45 0 0 1 0.45,0.45v0a0.45,0.45 0 0 1 -0.45,0.45h0a0.45,0.45 0 0 1 -0.45,-0.45v0a0.45,0.45 0 0 1 0.45,-0.45zM25.5,28.05h0a0.45,0.45 0 0 1 0.45,0.45v0a0.45,0.45 0 0 1 -0.45,0.45h0a0.45,0.45 0 0 1 -0.45,-0.45v0a0.45,0.45 0 0 1 0.45,-0.45zM26.5,28.05h0a0.45,0.45 0 0 1 0.45,0.45v0a0.45,0.45 0 0 1 -0.45,0.45h0a0.45,0.45 0 0 1 -0.45,-0.45v0a0.45,0.45 0 0 1 0.45,-0.45z"></path><path id="qr squares" d="M1.25,-1h4.5a2.25,2.25 0 0 1 2.25,2.25v4.5a2.25,2.25 0 0 1 -2.25,2.25h-4.5a2.25,2.25 0 0 1 -2.25,-2.25v-4.5a2.25,2.25 0 0 1 2.25,-2.25zM1.75,0h3.5a1.75,1.75 0 0 1 1.75,1.75v3.5a1.75,1.75 0 0 1 -1.75,1.75h-3.5a1.75,1.75 0 0 1 -1.75,-1.75v-3.5a1.75,1.75 0 0 1 1.75,-1.75zM2.25,1h2.5a1.25,1.25 0 0 1 1.25,1.25v2.5a1.25,1.25 0 0 1 -1.25,1.25h-2.5a1.25,1.25 0 0 1 -1.25,-1.25v-2.5a1.25,1.25 0 0 1 1.25,-1.25zM2.75,2h1.5a0.75,0.75 0 0 1 0.75,0.75v1.5a0.75,0.75 0 0 1 -0.75,0.75h-1.5a0.75,0.75 0 0 1 -0.75,-0.75v-1.5a0.75,0.75 0 0 1 0.75,-0.75z M23.25,-1h4.5a2.25,2.25 0 0 1 2.25,2.25v4.5a2.25,2.25 0 0 1 -2.25,2.25h-4.5a2.25,2.25 0 0 1 -2.25,-2.25v-4.5a2.25,2.25 0 0 1 2.25,-2.25zM23.75,0h3.5a1.75,1.75 0 0 1 1.75,1.75v3.5a1.75,1.75 0 0 1 -1.75,1.75h-3.5a1.75,1.75 0 0 1 -1.75,-1.75v-3.5a1.75,1.75 0 0 1 1.75,-1.75zM24.25,1h2.5a1.25,1.25 0 0 1 1.25,1.25v2.5a1.25,1.25 0 0 1 -1.25,1.25h-2.5a1.25,1.25 0 0 1 -1.25,-1.25v-2.5a1.25,1.25 0 0 1 1.25,-1.25zM24.75,2h1.5a0.75,0.75 0 0 1 0.75,0.75v1.5a0.75,0.75 0 0 1 -0.75,0.75h-1.5a0.75,0.75 0 0 1 -0.75,-0.75v-1.5a0.75,0.75 0 0 1 0.75,-0.75z M1.25,21h4.5a2.25,2.25 0 0 1 2.25,2.25v4.5a2.25,2.25 0 0 1 -2.25,2.25h-4.5a2.25,2.25 0 0 1 -2.25,-2.25v-4.5a2.25,2.25 0 0 1 2.25,-2.25zM1.75,22h3.5a1.75,1.75 0 0 1 1.75,1.75v3.5a1.75,1.75 0 0 1 -1.75,1.75h-3.5a1.75,1.75 0 0 1 -1.75,-1.75v-3.5a1.75,1.75 0 0 1 1.75,-1.75zM2.25,23h2.5a1.25,1.25 0 0 1 1.25,1.25v2.5a1.25,1.25 0 0 1 -1.25,1.25h-2.5a1.25,1.25 0 0 1 -1.25,-1.25v-2.5a1.25,1.25 0 0 1 1.25,-1.25zM2.75,24h1.5a0.75,0.75 0 0 1 0.75,0.75v1.5a0.75,0.75 0 0 1 -0.75,0.75h-1.5a0.75,0.75 0 0 1 -0.75,-0.75v-1.5a0.75,0.75 0 0 1 0.75,-0.75zM21.75,21h1.5a0.75,0.75 0 0 1 0.75,0.75v1.5a0.75,0.75 0 0 1 -0.75,0.75h-1.5a0.75,0.75 0 0 1 -0.75,-0.75v-1.5a0.75,0.75 0 0 1 0.75,-0.75zM22.25,22h0.5a0.25,0.25 0 0 1 0.25,0.25v0.5a0.25,0.25 0 0 1 -0.25,0.25h-0.5a0.25,0.25 0 0 1 -0.25,-0.25v-0.5a0.25,0.25 0 0 1 0.25,-0.25z" fill-rule="evenodd" fill-opacity="1" fill="rgb(255, 255, 255)"></path></svg>